<svg id="Capa_1" data-name="Capa 1" xmlns="http://www.w3.org/2000/svg" xmlns:xlink="http://www.w3.org/1999/xlink" viewBox="0 0 1024.33 740.67"><defs><style>.cls-1{fill:#de402c;}.cls-2{fill:#fff;}.cls-3{fill:#4fa0ca;}.cls-4{fill:url(#Degradado_sin_nombre_2);}.cls-5{fill:url(#Degradado_sin_nombre_2-2);}.cls-6{fill:url(#Degradado_sin_nombre_2-3);}.cls-7{fill:url(#Degradado_sin_nombre_15);}.cls-8{fill:url(#Degradado_sin_nombre_15-2);}.cls-9{fill:url(#Degradado_sin_nombre_4);}.cls-10{fill:url(#Degradado_sin_nombre_6);}.cls-11{fill:url(#Degradado_sin_nombre_19);}.cls-12{fill:url(#Degradado_sin_nombre_19-2);}.cls-13{fill:url(#Degradado_sin_nombre_19-3);}</style><linearGradient id="Degradado_sin_nombre_2" x1="127.66" y1="398.74" x2="127.66" y2="493.37" gradientTransform="translate(569.1 232.85) rotate(73.15)" gradientUnits="userSpaceOnUse"><stop offset="0" stop-color="#de842c"/><stop offset="1" stop-color="#de402c"/></linearGradient><linearGradient id="Degradado_sin_nombre_2-2" x1="543.16" y1="398.74" x2="543.16" y2="493.37" gradientTransform="translate(886.89 -153.38) rotate(75.13)" xlink:href="#Degradado_sin_nombre_2"/><linearGradient id="Degradado_sin_nombre_2-3" x1="958.66" y1="398.74" x2="958.66" y2="493.37" gradientTransform="translate(1053.63 -577.1) rotate(67.5)" xlink:href="#Degradado_sin_nombre_2"/><linearGradient id="Degradado_sin_nombre_15" x1="748.84" y1="385.45" x2="751.72" y2="544.87" gradientTransform="translate(925.38 -385.16) rotate(67.5)" gradientUnits="userSpaceOnUse"><stop offset="0" stop-color="#4fa0ca"/><stop offset="1" stop-color="#006aca"/></linearGradient><linearGradient id="Degradado_sin_nombre_15-2" x1="333.48" y1="392.95" x2="336.36" y2="552.38" gradientTransform="translate(732.46 47.41) rotate(75.13)" xlink:href="#Degradado_sin_nombre_15"/><linearGradient id="Degradado_sin_nombre_4" x1="133.66" y1="874.22" x2="61.23" y2="788.07" gradientTransform="translate(817.66 499.89) rotate(73.15)" gradientUnits="userSpaceOnUse"><stop offset="0" stop-color="#4fa0ca"/><stop offset="0.2" stop-color="#6790af"/><stop offset="0.63" stop-color="#a5666a"/><stop offset="1" stop-color="#de402c"/></linearGradient><linearGradient id="Degradado_sin_nombre_6" x1="605.24" y1="881.02" x2="514.6" y2="764.02" gradientTransform="translate(1177.8 70.36) rotate(75.13)" gradientUnits="userSpaceOnUse"><stop offset="0" stop-color="#4fa0ca"/><stop offset="1" stop-color="#de402c"/></linearGradient><linearGradient id="Degradado_sin_nombre_19" x1="1012.26" y1="886.92" x2="938.97" y2="769.28" gradientTransform="translate(1331.72 -391.29) rotate(67.5)" xlink:href="#Degradado_sin_nombre_6"/><linearGradient id="Degradado_sin_nombre_19-2" x1="816.55" y1="876.41" x2="722.69" y2="768.41" gradientTransform="translate(1203.47 -199.35) rotate(67.5)" xlink:href="#Degradado_sin_nombre_6"/><linearGradient id="Degradado_sin_nombre_19-3" x1="385.69" y1="878.86" x2="319.16" y2="775.68" gradientTransform="translate(1023.38 271.15) rotate(75.13)" xlink:href="#Degradado_sin_nombre_6"/></defs><title>edad</title><circle class="cls-1" cx="127.66" cy="197.89" r="68.84" transform="translate(-101.89 133.67) rotate(-73.15)"/><path class="cls-2" d="M127.66,236a1.64,1.64,0,0,1-1.3-.66l-23.54-32.62-.09-.13,0,0a28.64,28.64,0,1,1,50-.1,1.65,1.65,0,0,1-.15.25L129,235.3a1.61,1.61,0,0,1-1.29.66m-22.2-35.08,22.2,30.75,22.2-30.75a25.45,25.45,0,1,0-44.4,0m22.2-1a12.7,12.7,0,1,1,12.7-12.7,12.72,12.72,0,0,1-12.7,12.7m0-22.85a10.15,10.15,0,1,0,10.15,10.15A10.16,10.16,0,0,0,127.66,177" transform="translate(-3.16 -129.05)"/><circle class="cls-1" cx="543.16" cy="197.89" r="68.84" transform="translate(209.33 543.01) rotate(-75.13)"/><path class="cls-2" d="M553.79,206.2l-29.48,11.37c-4.7,1.8-8,.32-9.8-4.34-1.33-3.45-2.69-6.89-4-10.36a2.3,2.3,0,0,0-1.68-1.66,6.18,6.18,0,0,1-4.66-6.34q0-13.94,0-27.85c0-4.29,2.69-7,6.95-7q25.5,0,51,0c4.28,0,6.91,2.63,7.08,6.92a2.26,2.26,0,0,1,0,.52c-.88,4.69.9,8.18,4.63,11a26.06,26.06,0,0,1,4.89,5.16,16.57,16.57,0,0,1,3.4,10c0,14.09,0,28.19,0,42.28,0,1.51-.56,2.05-2,2-7.31,0-14.62-.05-21.93,0-1.67,0-2.11-.78-2.1-2.23,0-3.48,0-7,0-10.44a3.21,3.21,0,0,0-.29-1.85,19.06,19.06,0,0,1-2-17.28m15.12-8.93c4.24-1.19,5.07-2.82,3.52-6.85-.52-1.35-1-2.71-1.57-4-.2-.5-.2-1.35-1-1.23-.94.13-.5,1-.54,1.57-.21,3.51.42,7.06-.46,10.54l0,.05Zm-2.39-1.41v-2.07q0-13.14,0-26.26c0-3.56-1.34-4.93-4.95-4.93q-25,0-49.91,0c-3.52,0-4.85,1.35-4.85,4.84q0,13.4,0,26.78c0,3.42,1.42,4.8,4.88,4.8q18,0,36,0a2.52,2.52,0,0,0,1.65-.24c-1.65-1.83-3.32-3.57-4.85-5.42A6.83,6.83,0,0,1,548,182.14c2.72-.75,5,.23,6.94,2.15,3.74,3.71,7.45,7.45,11.55,11.57m5.16-15.1c1.26,3.21,2.54,6.41,3.77,9.63a6.7,6.7,0,0,1-2.87,8.56c-.6.33-1.24.58-2,1,1.3,1.25,2.5,2.42,3.73,3.57.66.63,1.22,1.07.22,2s-1.42.74-2.17-.11c-1-1.12-2.12-2.14-3.19-3.21l-15.86-15.87c-1.25-1.25-2.68-2.1-4.5-1.67-3.34.8-4.47,4.38-2.14,7.06,3.16,3.63,6.43,7.17,9.73,10.67a2.72,2.72,0,0,1,.51,3.53,15.94,15.94,0,0,0,.58,15.16,2.12,2.12,0,0,0,2.16,1.26c6-.06,11.94-.08,17.92,0,1.46,0,1.94-.25,1.92-1.86-.09-8.35-.24-16.7,0-25.05.2-6.45-2.72-11-7.79-14.66M553.35,203.4a3,3,0,0,0-3.1-1.6c-3.7.09-7.42.19-11.13,0-5.64-.3-11.07.25-16.16,2.9-.81.43-1.74.63-2.58,1-1.6.76-4.2.78-4.66,2.17s.95,3.3,1.62,5c1,2.52,2.72,3.3,5.28,2.42,1.26-.44,2.49-.95,3.73-1.43l27-10.43m15.76,31.94c3.07,0,6.14,0,9.2,0,.88,0,1.23-.19,1.21-1.14-.06-2.61,0-5.21,0-7.81,0-1-.23-1.32-1.26-1.32q-9.12.07-18.23,0c-1.06,0-1.23.44-1.22,1.35.05,2.54.06,5.09,0,7.64,0,1,.28,1.3,1.27,1.29,3-.06,6,0,9,0" transform="translate(-3.16 -129.05)"/><path class="cls-2" d="M522.31,171.67c0,.93,0,1.85,0,2.78-.08,2.46-1.2,3.63-3.63,3.69-1.91.05-3.82.05-5.73,0-2.17-.06-3.39-1.13-3.5-3.26a59.78,59.78,0,0,1,0-6.42,3.13,3.13,0,0,1,3.26-3.17,62,62,0,0,1,6.25,0c2.15.11,3.24,1.3,3.34,3.44,0,1,0,2,0,2.95ZM515.84,168c-.81,0-1.62,0-2.43,0s-1.27.16-1.28,1.13.23,1.32,1.16,1.15c1.2-.21,1.42.38,1.42,1.46s-.25,1.53-1.35,1.36c-.82-.13-1.25.08-1.23,1.08s.38,1.35,1.32,1.34q2.43,0,4.86,0c.94,0,1.32-.36,1.38-1.33.08-1.21-.64-1.18-1.41-1.08-1.14.15-1.34-.4-1.32-1.4s0-1.6,1.27-1.44c.72.09,1.52.23,1.46-1s-.67-1.29-1.59-1.24c-.75,0-1.51,0-2.26,0" transform="translate(-3.16 -129.05)"/><path class="cls-2" d="M513.17,184.7a10.59,10.59,0,0,0-1.38,0c-1.17.16-1.11-.58-1.12-1.38s0-1.36,1.08-1.26c.74.08,1.49,0,2.24,0s2-.48,2,1.26-1,1.32-1.9,1.34h-.87" transform="translate(-3.16 -129.05)"/><path class="cls-2" d="M528.82,184.7a10.59,10.59,0,0,0-1.38,0c-1.07.14-1.21-.43-1.21-1.32s.12-1.44,1.19-1.32c.68.08,1.39,0,2.07,0s2-.6,2,1.19-1,1.39-2,1.41h-.69" transform="translate(-3.16 -129.05)"/><path class="cls-2" d="M536.6,184.71a10.75,10.75,0,0,0-1.39,0c-1,.11-1.16-.37-1.14-1.22s0-1.54,1.14-1.42c.69.06,1.4-.06,2.09,0s2-.57,2,1.22-1.07,1.36-2,1.4h-.7" transform="translate(-3.16 -129.05)"/><path class="cls-2" d="M521.05,182.09a12.69,12.69,0,0,0,1.38,0c1-.12,1.24.33,1.26,1.28s-.24,1.49-1.34,1.36a17.68,17.68,0,0,0-2.06,0c-.92,0-1.9.34-1.88-1.33s1.09-1.21,2-1.28c.22,0,.46,0,.68,0" transform="translate(-3.16 -129.05)"/><path class="cls-2" d="M513.28,189.93c.52,0,1,0,1.55,0,1-.11,1.06.52,1.07,1.28s-.14,1.33-1.12,1.25c-.74-.06-1.49,0-2.23,0s-1.84.41-1.87-1.19,1-1.27,1.91-1.31c.23,0,.46,0,.69,0" transform="translate(-3.16 -129.05)"/><path class="cls-2" d="M536.67,192.45a9.77,9.77,0,0,0-1.21,0c-1,.12-1.43-.21-1.42-1.33s.4-1.3,1.34-1.22c.69.06,1.39,0,2.08,0s1.85-.41,1.87,1.21-.89,1.3-1.79,1.31h-.87" transform="translate(-3.16 -129.05)"/><path class="cls-2" d="M561.31,168.5c-.18.74.56,1.94-1.22,2s-1.34-1-1.29-1.93-.58-2,1.19-2,1.26,1,1.32,2" transform="translate(-3.16 -129.05)"/><path class="cls-2" d="M556.11,168.5c-.17.76.54,1.94-1.23,2s-1.33-1.05-1.28-1.93-.59-2,1.18-2,1.27,1,1.33,2" transform="translate(-3.16 -129.05)"/><path class="cls-2" d="M550.87,168.31c0,1.24.3,2.2-1.34,2.16-1.8-.05-1.08-1.28-1.12-2.06s-.51-1.85,1.13-1.89c1.82,0,1.27,1.14,1.33,1.79" transform="translate(-3.16 -129.05)"/><path class="cls-2" d="M543.16,168.48c.21-.7-.62-1.93,1.19-2,1.66,0,1.39,1,1.33,1.91s.57,2-1.2,2-1.27-1-1.32-2" transform="translate(-3.16 -129.05)"/><path class="cls-2" d="M564,229c.29,1.31-.55,1.27-1.5,1.34-1.35.11-1.24-.68-1.31-1.6-.08-1.19.56-1.21,1.47-1.26,1.19-.07,1.55.42,1.34,1.52" transform="translate(-3.16 -129.05)"/><circle class="cls-1" cx="958.66" cy="197.89" r="68.84" transform="translate(405.81 878.79) rotate(-67.5)"/><path class="cls-2" d="M939,192.9V164.45c0-3.79,1.65-5.44,5.43-5.45H973c3.54,0,5.33,1.77,5.33,5.28q0,28.68,0,57.36c0,3.26-1.9,5.17-5.15,5.18q-14.54,0-29.06,0c-3.27,0-5.15-1.89-5.15-5.16Q939,207.27,939,192.9Zm3.21-.68c0,8.11,0,16.23,0,24.35,0,1.3.24,1.84,1.72,1.83,9.88-.07,19.76-.05,29.64,0,1.23,0,1.65-.31,1.64-1.6q-.06-24.49,0-49c0-1.29-.42-1.61-1.64-1.6q-14.82.06-29.65,0c-1.3,0-1.73.32-1.72,1.68C942.21,176,942.18,184.1,942.18,192.22Zm16.47,27.72a2.18,2.18,0,0,0-2.21,2.33,2.12,2.12,0,0,0,2.21,2.15,2.18,2.18,0,0,0,2.22-2.31A2.21,2.21,0,0,0,958.65,219.94Z" transform="translate(-3.16 -129.05)"/><circle class="cls-3" cx="750.91" cy="197.89" r="68.84" transform="translate(277.56 686.86) rotate(-67.5)"/><path class="cls-2" d="M788.22,188.85l-9.67-6.41V161a1.25,1.25,0,0,0-1.25-1.25H724.52a1.25,1.25,0,0,0-1.25,1.25v21.44l-9.67,6.41h0a1.25,1.25,0,0,0-.57,1v38.86a1.26,1.26,0,0,0,1.26,1.25h73.24a1.25,1.25,0,0,0,1.25-1.25V189.89a1.24,1.24,0,0,0-.56-1Zm-65,4.39-3.94-2.09h3.94ZM715.54,192l28.85,15.3-28.85,19.13Zm35.37,14,32.46,21.51H718.45Zm6.51,1.3L786.27,192v34.43Zm21.13-16.13h3.94l-3.94,2.09Zm4.82-2.51h-4.82v-3.19ZM776,162.26v32.31l-21,11.14-3.44-2.29a1.28,1.28,0,0,0-1.38,0l-3.45,2.29-21-11.14V162.26Zm-52.77,26.38h-4.82l4.82-3.19Zm0,0" transform="translate(-3.16 -129.05)"/><path class="cls-2" d="M750.91,192.74h10a1.26,1.26,0,1,0,0-2.51h-10a8.75,8.75,0,0,1-8.74-8.74v-.37a8.74,8.74,0,0,1,17.48,0v.93a1.9,1.9,0,0,1-3.79,0v-1.76a5.42,5.42,0,1,0-1.84,4.07,4.4,4.4,0,0,0,8.14-2.31v-.93a11.25,11.25,0,0,0-22.5,0v.37a11.26,11.26,0,0,0,11.25,11.25Zm-.46-9.54a2.91,2.91,0,1,1,2.91-2.91,2.91,2.91,0,0,1-2.91,2.91Zm0,0" transform="translate(-3.16 -129.05)"/><circle class="cls-3" cx="335.41" cy="197.89" r="68.84" transform="translate(54.9 342.22) rotate(-75.13)"/><path class="cls-2" d="M328.43,235.93c.19-1.28,1.16-1.21,2.1-1.21,6.13,0,12.26,0,18.4,0,1.28,0,1.8-.25,1.74-1.67-.12-2.75,0-5.5,0-8.25,0-.91.07-1.9,1.23-1.85s1.1,1,1.1,1.82c0,2.87,0,5.73,0,8.6,0,1.07.32,1.4,1.36,1.34,1.48-.1,3,0,4.46-.11,1.91-.16,2.46-.93,2.11-2.9-.44-2.48-.92-4.95-1.47-7.41a2,2,0,0,1,.55-2,1.71,1.71,0,0,1,1.75,1.71c.42,2.55,1,5.06,1.46,7.6.56,3.15-1.19,5.34-4.42,5.35-9.53,0-19.06,0-28.6,0-.81,0-1.49-.13-1.7-1.06" transform="translate(-3.16 -129.05)"/><path class="cls-2" d="M325.46,235.92c-.25.88-.89,1.08-1.72,1.07-3.91,0-7.82,0-11.72,0-3.2-.06-4.94-2.28-4.33-5.4q1.59-8.19,3.24-16.37a7.28,7.28,0,0,1,5.19-5.86c2.45-.78,4.91-1.57,7.4-2.21a12.14,12.14,0,0,0,4.12-2c1.22-.9,1.19-2.1-.12-3a14.48,14.48,0,0,1-7-11.79,1.49,1.49,0,0,0-1.06-1.5c-3.07-1.27-4-3.44-2.75-6.44a8.46,8.46,0,0,0,.23-3.24,20.67,20.67,0,0,1,1.27-7.59,2.48,2.48,0,0,1,1.43-1.52,2.52,2.52,0,0,0,1.69-2.86c-.2-.93.41-1.4.91-1.9,5.14-5.06,11.27-6.74,18.18-4.77a17.55,17.55,0,0,1,12.93,13.4,19.24,19.24,0,0,1,.51,4.78,11.73,11.73,0,0,0,.66,4.7c.85,2-.47,4.36-2.88,5.33a1.82,1.82,0,0,0-1.31,1.85,14.6,14.6,0,0,1-7.1,11.56c-1.29.83-1.22,2,0,3,1.75,1.42,3.86,1.92,5.94,2.53,1.76.51,3.53,1,5.28,1.55a7.55,7.55,0,0,1,5.48,6.22,18,18,0,0,0,.43,2.19,1.34,1.34,0,0,1-.77,1.83c-2-.24-1.52-2-1.73-3.09a5.94,5.94,0,0,0-4.62-5.15c-2.22-.59-4.43-1.21-6.6-1.94-.92-.31-1.21,0-1.47.77-.49,1.52-1,3-1.59,4.54a2.32,2.32,0,0,1-3.32,1.43c-.75-.28-1.53-.5-2.25-.84-1.18-.56-1.72-.49-1.65,1.06.12,2.4,0,4.82,0,7.23,0,.86-.23,1.73-1.27,1.68s-1.1-.84-1.1-1.66c0-1.83,0-3.67,0-5.51,0-3.34,0-3.34-3.19-2.08-1.93.77-3,.31-3.71-1.7-.52-1.39-1-2.8-1.49-4.21-.23-.68-.48-1-1.35-.75-2.5.82-5.06,1.45-7.56,2.29a4.79,4.79,0,0,0-3.43,3.74c-.37,1.79-.76,3.58-1.12,5.38-.74,3.65-1.48,7.3-2.19,11-.42,2.2.19,3,2.43,3.1,1.38.07,2.76,0,4.14.06,1.07.07,1.37-.3,1.35-1.36-.07-2.93,0-5.86,0-8.78,0-.8.19-1.63,1.12-1.66s1.25.8,1.25,1.7c0,2.29,0,4.59,0,6.89,0,3.13,0,3.14,3.09,3.16,1,0,1.9,0,2.12,1.21m2.73-60.51c-1.61-.68-2.27-.11-2.38,1.6a5.76,5.76,0,0,1-2.38,4.21,1.58,1.58,0,0,0-.72,1.42c0,2.29-.08,4.58.05,6.87.24,4.17,1.73,7.73,5.44,10.06,7.08,5.44,18,1.15,19.58-7.66.56-3.14.2-6.29.32-9.44a1.06,1.06,0,0,0-.44-1,6.63,6.63,0,0,1-2.74-5.12c-.06-.82-.37-1.25-1.31-1.12a65.73,65.73,0,0,1-15.42.2m7,35.48c1.56-2,3-3.88,4.49-5.77.24-.31.55-.69.26-1.07s-.65-.12-1-.05a16.35,16.35,0,0,1-7.3,0c-.28-.07-.69-.32-.9.1s.05.68.24,1l4.18,5.84m1.9,1.51c1.5.51,3,1.57,4,1.23s1.05-2.33,1.58-3.56c.18-.42.32-.86.5-1.28.44-1.08-.59-1.17-1.08-1.61s-.9-.1-1.23.33l-3.79,4.89m-3.86-.1c-1.1-1.53-2.21-3.05-3.29-4.59-.39-.56-.72-1-1.47-.44-.56.45-1.38.68-.81,1.7a9.46,9.46,0,0,1,.56,1.6c1.33,3.65,1.33,3.65,5,1.73m-13-25.68v-4.18a2.13,2.13,0,0,0-1.67,1.82c-.12,1.14.46,1.83,1.67,2.36m30.37-4.19v4.15a2.13,2.13,0,0,0,1.66-2.21c0-1.06-.68-1.56-1.66-1.94" transform="translate(-3.16 -129.05)"/><circle class="cls-4" cx="127.66" cy="499.89" r="68.84" transform="translate(-390.93 348.16) rotate(-73.15)"/><path class="cls-2" d="M127.66,538a1.64,1.64,0,0,1-1.3-.66l-23.54-32.62-.09-.13,0,0a28.64,28.64,0,1,1,50-.1,1.65,1.65,0,0,1-.15.25L129,537.3a1.61,1.61,0,0,1-1.29.66m-22.2-35.08,22.2,30.75,22.2-30.75a25.45,25.45,0,1,0-44.4,0m22.2-1a12.7,12.7,0,1,1,12.7-12.7,12.72,12.72,0,0,1-12.7,12.7m0-22.85a10.15,10.15,0,1,0,10.15,10.15A10.16,10.16,0,0,0,127.66,479" transform="translate(-3.16 -129.05)"/><circle class="cls-5" cx="543.16" cy="499.89" r="68.84" transform="translate(-82.56 767.5) rotate(-75.13)"/><path class="cls-2" d="M553.79,508.2l-29.48,11.37c-4.7,1.8-8,.32-9.8-4.34-1.33-3.45-2.69-6.89-4-10.36a2.3,2.3,0,0,0-1.68-1.66,6.18,6.18,0,0,1-4.66-6.34q0-13.94,0-27.85c0-4.29,2.69-7,6.95-7q25.5,0,51,0c4.28,0,6.91,2.63,7.08,6.92a2.26,2.26,0,0,1,0,.52c-.88,4.69.9,8.18,4.63,11a26.06,26.06,0,0,1,4.89,5.16,16.57,16.57,0,0,1,3.4,10c0,14.09,0,28.19,0,42.28,0,1.51-.56,2-2,2-7.31,0-14.62,0-21.93,0-1.67,0-2.11-.78-2.1-2.23,0-3.48,0-7,0-10.44a3.21,3.21,0,0,0-.29-1.85,19.06,19.06,0,0,1-2-17.28m15.12-8.93c4.24-1.19,5.07-2.82,3.52-6.85-.52-1.35-1-2.71-1.57-4-.2-.5-.2-1.35-1-1.23-.94.13-.5,1-.54,1.57-.21,3.51.42,7.06-.46,10.54l0,.05Zm-2.39-1.41v-2.07q0-13.14,0-26.26c0-3.56-1.34-4.93-4.95-4.93q-25,0-49.91,0c-3.52,0-4.85,1.35-4.85,4.84q0,13.4,0,26.78c0,3.42,1.42,4.8,4.88,4.8q18,0,36,0a2.52,2.52,0,0,0,1.65-.24c-1.65-1.83-3.32-3.57-4.85-5.42A6.83,6.83,0,0,1,548,484.14c2.72-.75,5,.23,6.94,2.15,3.74,3.71,7.45,7.45,11.55,11.57m5.16-15.1c1.26,3.21,2.54,6.41,3.77,9.63a6.7,6.7,0,0,1-2.87,8.56c-.6.33-1.24.58-2,.95,1.3,1.25,2.5,2.42,3.73,3.57.66.63,1.22,1.07.22,2s-1.42.74-2.17-.11c-1-1.12-2.12-2.14-3.19-3.21l-15.86-15.87c-1.25-1.25-2.68-2.1-4.5-1.67-3.34.8-4.47,4.38-2.14,7.06,3.16,3.63,6.43,7.17,9.73,10.67a2.72,2.72,0,0,1,.51,3.53,15.94,15.94,0,0,0,.58,15.16,2.12,2.12,0,0,0,2.16,1.26c6-.06,11.94-.08,17.92,0,1.46,0,1.94-.25,1.92-1.86-.09-8.35-.24-16.7,0-25.05.2-6.45-2.72-11-7.79-14.66M553.35,505.4a3,3,0,0,0-3.1-1.6c-3.7.09-7.42.19-11.13,0-5.64-.3-11.07.25-16.16,2.9-.81.43-1.74.63-2.58,1-1.6.76-4.2.78-4.66,2.17s.95,3.3,1.62,5c1,2.52,2.72,3.3,5.28,2.42,1.26-.44,2.49-1,3.73-1.43l27-10.43m15.76,31.94c3.07,0,6.14,0,9.2,0,.88,0,1.23-.19,1.21-1.14-.06-2.61,0-5.21,0-7.81,0-.95-.23-1.32-1.26-1.32q-9.12.07-18.23,0c-1.06,0-1.23.44-1.22,1.35.05,2.54.06,5.09,0,7.64,0,1,.28,1.3,1.27,1.29,3-.06,6,0,9,0" transform="translate(-3.16 -129.05)"/><path class="cls-2" d="M522.31,473.67c0,.93,0,1.85,0,2.78-.08,2.46-1.2,3.63-3.63,3.69-1.91.05-3.82.05-5.73,0-2.17-.06-3.39-1.13-3.5-3.26a59.78,59.78,0,0,1,0-6.42,3.13,3.13,0,0,1,3.26-3.17,62,62,0,0,1,6.25,0c2.15.11,3.24,1.3,3.34,3.44,0,1,0,2,0,2.95ZM515.84,470c-.81,0-1.62,0-2.43,0s-1.27.16-1.28,1.13.23,1.32,1.16,1.15c1.2-.21,1.42.38,1.42,1.46s-.25,1.53-1.35,1.36c-.82-.13-1.25.08-1.23,1.08s.38,1.35,1.32,1.34q2.43,0,4.86,0c.94,0,1.32-.36,1.38-1.33.08-1.21-.64-1.18-1.41-1.08-1.14.15-1.34-.4-1.32-1.4s0-1.6,1.27-1.44c.72.09,1.52.23,1.46-1s-.67-1.29-1.59-1.24c-.75,0-1.51,0-2.26,0" transform="translate(-3.16 -129.05)"/><path class="cls-2" d="M513.17,486.7a10.59,10.59,0,0,0-1.38,0c-1.17.16-1.11-.58-1.12-1.38s0-1.36,1.08-1.26c.74.08,1.49,0,2.24,0s2-.48,2,1.26-1,1.32-1.9,1.34h-.87" transform="translate(-3.16 -129.05)"/><path class="cls-2" d="M528.82,486.7a10.59,10.59,0,0,0-1.38,0c-1.07.14-1.21-.43-1.21-1.32s.12-1.44,1.19-1.32c.68.08,1.39,0,2.07,0s2-.6,2,1.19-1,1.39-2,1.41h-.69" transform="translate(-3.16 -129.05)"/><path class="cls-2" d="M536.6,486.71a10.75,10.75,0,0,0-1.39,0c-1,.11-1.16-.37-1.14-1.22s0-1.54,1.14-1.42c.69.06,1.4-.06,2.09,0s2-.57,2,1.22-1.07,1.36-2,1.4c-.23,0-.46,0-.7,0" transform="translate(-3.16 -129.05)"/><path class="cls-2" d="M521.05,484.09a12.69,12.69,0,0,0,1.38,0c1-.12,1.24.33,1.26,1.28s-.24,1.49-1.34,1.36a17.68,17.68,0,0,0-2.06,0c-.92,0-1.9.34-1.88-1.33s1.09-1.21,2-1.28c.22,0,.46,0,.68,0" transform="translate(-3.16 -129.05)"/><path class="cls-2" d="M513.28,491.93c.52,0,1,0,1.55,0,1-.11,1.06.52,1.07,1.28s-.14,1.33-1.12,1.25c-.74-.06-1.49,0-2.23,0s-1.84.41-1.87-1.19,1-1.27,1.91-1.31h.69" transform="translate(-3.16 -129.05)"/><path class="cls-2" d="M536.67,494.45a9.77,9.77,0,0,0-1.21,0c-1,.12-1.43-.21-1.42-1.33s.4-1.3,1.34-1.22c.69.06,1.39,0,2.08,0s1.85-.41,1.87,1.21-.89,1.3-1.79,1.31h-.87" transform="translate(-3.16 -129.05)"/><path class="cls-2" d="M561.31,470.5c-.18.74.56,1.94-1.22,2s-1.34-1-1.29-1.93-.58-2,1.19-2,1.26,1,1.32,2" transform="translate(-3.16 -129.05)"/><path class="cls-2" d="M556.11,470.5c-.17.76.54,1.94-1.23,2s-1.33-1.05-1.28-1.93-.59-2,1.18-2,1.27,1,1.33,2" transform="translate(-3.16 -129.05)"/><path class="cls-2" d="M550.87,470.31c0,1.24.3,2.2-1.34,2.16-1.8-.05-1.08-1.28-1.12-2.06s-.51-1.85,1.13-1.89c1.82,0,1.27,1.14,1.33,1.79" transform="translate(-3.16 -129.05)"/><path class="cls-2" d="M543.16,470.48c.21-.7-.62-1.93,1.19-2,1.66,0,1.39,1,1.33,1.91s.57,2-1.2,2-1.27-1-1.32-2" transform="translate(-3.16 -129.05)"/><path class="cls-2" d="M564,531c.29,1.31-.55,1.27-1.5,1.34-1.35.11-1.24-.68-1.31-1.6-.08-1.19.56-1.21,1.47-1.26,1.19-.07,1.55.42,1.34,1.52" transform="translate(-3.16 -129.05)"/><circle class="cls-6" cx="958.66" cy="499.89" r="68.84" transform="translate(126.8 1065.22) rotate(-67.5)"/><path class="cls-2" d="M939,494.9V466.45c0-3.79,1.65-5.44,5.43-5.45H973c3.54,0,5.33,1.77,5.33,5.28q0,28.68,0,57.36c0,3.26-1.9,5.17-5.15,5.18H944.13c-3.27,0-5.15-1.89-5.15-5.16Q939,509.28,939,494.9Zm3.21-.68c0,8.11,0,16.23,0,24.35,0,1.3.24,1.84,1.72,1.83,9.88-.07,19.76,0,29.64,0,1.23,0,1.65-.31,1.64-1.6q-.06-24.5,0-49c0-1.29-.42-1.61-1.64-1.6q-14.82.06-29.65,0c-1.3,0-1.73.32-1.72,1.68C942.21,478,942.18,486.1,942.18,494.22Zm16.47,27.72a2.18,2.18,0,0,0-2.21,2.33,2.12,2.12,0,0,0,2.21,2.15,2.18,2.18,0,0,0,2.22-2.31A2.21,2.21,0,0,0,958.65,521.94Z" transform="translate(-3.16 -129.05)"/><circle class="cls-7" cx="750.91" cy="499.89" r="68.84" transform="translate(-1.45 873.29) rotate(-67.5)"/><path class="cls-2" d="M788.22,490.85l-9.67-6.41V463a1.25,1.25,0,0,0-1.25-1.25H724.52a1.25,1.25,0,0,0-1.25,1.25v21.44l-9.67,6.41h0a1.25,1.25,0,0,0-.57,1v38.86a1.26,1.26,0,0,0,1.26,1.25h73.24a1.25,1.25,0,0,0,1.25-1.25V491.89a1.24,1.24,0,0,0-.56-1Zm-65,4.39-3.94-2.09h3.94ZM715.54,494l28.85,15.3-28.85,19.13Zm35.37,14,32.46,21.51H718.45Zm6.51,1.3L786.27,494v34.43Zm21.13-16.13h3.94l-3.94,2.09Zm4.82-2.51h-4.82v-3.19ZM776,464.26v32.31l-21,11.14-3.44-2.29a1.28,1.28,0,0,0-1.38,0l-3.45,2.29-21-11.14V464.26Zm-52.77,26.38h-4.82l4.82-3.19Zm0,0" transform="translate(-3.16 -129.05)"/><path class="cls-2" d="M750.91,494.74h10a1.26,1.26,0,1,0,0-2.51h-10a8.75,8.75,0,0,1-8.74-8.74v-.37a8.74,8.74,0,0,1,17.48,0v.93a1.9,1.9,0,0,1-3.79,0v-1.76a5.42,5.42,0,1,0-1.84,4.07,4.4,4.4,0,0,0,8.14-2.31v-.93a11.25,11.25,0,0,0-22.5,0v.37a11.26,11.26,0,0,0,11.25,11.25Zm-.46-9.54a2.91,2.91,0,1,1,2.91-2.91,2.91,2.91,0,0,1-2.91,2.91Zm0,0" transform="translate(-3.16 -129.05)"/><circle class="cls-8" cx="335.41" cy="499.89" r="68.84" transform="translate(-236.98 566.7) rotate(-75.13)"/><path class="cls-2" d="M328.43,537.93c.19-1.28,1.16-1.21,2.1-1.21,6.13,0,12.26,0,18.4,0,1.28,0,1.8-.25,1.74-1.67-.12-2.75,0-5.5,0-8.25,0-.91.07-1.9,1.23-1.85s1.1,1,1.1,1.82c0,2.87,0,5.73,0,8.6,0,1.07.32,1.4,1.36,1.34,1.48-.1,3,0,4.46-.11,1.91-.16,2.46-.93,2.11-2.9-.44-2.48-.92-5-1.47-7.41a2,2,0,0,1,.55-2,1.71,1.71,0,0,1,1.75,1.71c.42,2.55,1,5.06,1.46,7.6.56,3.15-1.19,5.34-4.42,5.35-9.53,0-19.06,0-28.6,0-.81,0-1.49-.13-1.7-1.06" transform="translate(-3.16 -129.05)"/><path class="cls-2" d="M325.46,537.92c-.25.88-.89,1.08-1.72,1.07-3.91,0-7.82,0-11.72,0-3.2-.06-4.94-2.28-4.33-5.4q1.59-8.19,3.24-16.37a7.28,7.28,0,0,1,5.19-5.86c2.45-.78,4.91-1.57,7.4-2.21a12.14,12.14,0,0,0,4.12-2c1.22-.9,1.19-2.1-.12-2.95a14.48,14.48,0,0,1-7-11.79,1.49,1.49,0,0,0-1.06-1.5c-3.07-1.27-4-3.44-2.75-6.44a8.46,8.46,0,0,0,.23-3.24,20.67,20.67,0,0,1,1.27-7.59,2.48,2.48,0,0,1,1.43-1.52,2.52,2.52,0,0,0,1.69-2.86c-.2-.93.41-1.4.91-1.9,5.14-5.06,11.27-6.74,18.18-4.77a17.55,17.55,0,0,1,12.93,13.4,19.24,19.24,0,0,1,.51,4.78,11.73,11.73,0,0,0,.66,4.7c.85,2-.47,4.36-2.88,5.33a1.82,1.82,0,0,0-1.31,1.85,14.6,14.6,0,0,1-7.1,11.56c-1.29.83-1.22,2,0,3,1.75,1.42,3.86,1.92,5.94,2.53,1.76.51,3.53,1,5.28,1.55a7.55,7.55,0,0,1,5.48,6.22,18,18,0,0,0,.43,2.19,1.34,1.34,0,0,1-.77,1.83c-2-.24-1.52-2-1.73-3.09a5.94,5.94,0,0,0-4.62-5.15c-2.22-.59-4.43-1.21-6.6-1.94-.92-.31-1.21,0-1.47.77-.49,1.52-1,3-1.59,4.54a2.32,2.32,0,0,1-3.32,1.43c-.75-.28-1.53-.5-2.25-.84-1.18-.56-1.72-.49-1.65,1.06.12,2.4,0,4.82,0,7.23,0,.86-.23,1.73-1.27,1.68s-1.1-.84-1.1-1.66c0-1.83,0-3.67,0-5.51,0-3.34,0-3.34-3.19-2.08-1.93.77-3,.31-3.71-1.7-.52-1.39-1-2.8-1.49-4.21-.23-.68-.48-1-1.35-.75-2.5.82-5.06,1.45-7.56,2.29a4.79,4.79,0,0,0-3.43,3.74c-.37,1.79-.76,3.58-1.12,5.38-.74,3.65-1.48,7.3-2.19,11-.42,2.2.19,3,2.43,3.1,1.38.07,2.76,0,4.14.06,1.07.07,1.37-.3,1.35-1.36-.07-2.93,0-5.86,0-8.78,0-.8.19-1.63,1.12-1.66s1.25.8,1.25,1.7c0,2.29,0,4.59,0,6.89,0,3.13,0,3.14,3.09,3.16,1,0,1.9,0,2.12,1.21m2.73-60.51c-1.61-.68-2.27-.11-2.38,1.6a5.76,5.76,0,0,1-2.38,4.21,1.58,1.58,0,0,0-.72,1.42c0,2.29-.08,4.58.05,6.87.24,4.17,1.73,7.73,5.44,10.06,7.08,5.44,18,1.15,19.58-7.66.56-3.14.2-6.29.32-9.44a1.06,1.06,0,0,0-.44-1,6.63,6.63,0,0,1-2.74-5.12c-.06-.82-.37-1.25-1.31-1.12a65.73,65.73,0,0,1-15.42.2m7,35.48c1.56-2,3-3.88,4.49-5.77.24-.31.55-.69.26-1.07s-.65-.12-1-.05a16.35,16.35,0,0,1-7.3,0c-.28-.07-.69-.32-.9.1s.05.68.24,1l4.18,5.84m1.9,1.51c1.5.51,3,1.57,4,1.23s1.05-2.33,1.58-3.56c.18-.42.32-.86.5-1.28.44-1.08-.59-1.17-1.08-1.61s-.9-.1-1.23.33l-3.79,4.89m-3.86-.1c-1.1-1.53-2.21-3-3.29-4.59-.39-.56-.72-1-1.47-.44-.56.45-1.38.68-.81,1.7a9.46,9.46,0,0,1,.56,1.6c1.33,3.65,1.33,3.65,5,1.73m-13-25.68v-4.18a2.13,2.13,0,0,0-1.67,1.82c-.12,1.14.46,1.83,1.67,2.36m30.37-4.19v4.15a2.13,2.13,0,0,0,1.66-2.21c0-1.06-.68-1.56-1.66-1.94" transform="translate(-3.16 -129.05)"/><circle class="cls-9" cx="72" cy="800.89" r="68.84" transform="translate(-718.55 508.66) rotate(-73.15)"/><path class="cls-2" d="M72,839a1.61,1.61,0,0,1-1.29-.66L47.16,805.68l-.09-.13,0,0a28.64,28.64,0,1,1,50-.1,1.65,1.65,0,0,1-.15.25L73.29,838.3A1.61,1.61,0,0,1,72,839M49.8,803.88,72,834.63l22.2-30.75a25.45,25.45,0,1,0-44.4,0m22.2-1a12.7,12.7,0,1,1,12.7-12.7A12.72,12.72,0,0,1,72,802.86M72,780a10.15,10.15,0,1,0,10.15,10.15A10.16,10.16,0,0,0,72,780" transform="translate(-3.16 -129.05)"/><circle class="cls-10" cx="543.16" cy="800.89" r="68.84" transform="translate(-373.47 991.24) rotate(-75.13)"/><path class="cls-2" d="M553.79,809.2l-29.48,11.37c-4.7,1.8-8,.32-9.8-4.34-1.33-3.45-2.69-6.89-4-10.36a2.3,2.3,0,0,0-1.68-1.66,6.18,6.18,0,0,1-4.66-6.34q0-13.93,0-27.85c0-4.29,2.69-7,6.95-7q25.5,0,51,0c4.28,0,6.91,2.63,7.08,6.92a2.26,2.26,0,0,1,0,.52c-.88,4.69.9,8.18,4.63,11a26.06,26.06,0,0,1,4.89,5.16,16.57,16.57,0,0,1,3.4,10c0,14.09,0,28.19,0,42.28,0,1.51-.56,2-2,2-7.31,0-14.62,0-21.93,0-1.67,0-2.11-.78-2.1-2.23,0-3.48,0-7,0-10.44a3.21,3.21,0,0,0-.29-1.85,19.06,19.06,0,0,1-2-17.28m15.12-8.93c4.24-1.19,5.07-2.82,3.52-6.85-.52-1.35-1-2.71-1.57-4-.2-.5-.2-1.35-1-1.23-.94.13-.5,1-.54,1.57-.21,3.51.42,7.06-.46,10.54l0,0Zm-2.39-1.41v-2.07q0-13.14,0-26.26c0-3.56-1.34-4.93-4.95-4.93q-25,0-49.91,0c-3.52,0-4.85,1.35-4.85,4.84q0,13.4,0,26.78c0,3.42,1.42,4.8,4.88,4.8q18,0,36,0a2.52,2.52,0,0,0,1.65-.24c-1.65-1.83-3.32-3.57-4.85-5.42A6.83,6.83,0,0,1,548,785.14c2.72-.75,5,.23,6.94,2.15,3.74,3.71,7.45,7.45,11.55,11.57m5.16-15.1c1.26,3.21,2.54,6.41,3.77,9.63a6.7,6.7,0,0,1-2.87,8.56c-.6.33-1.24.58-2,.95,1.3,1.25,2.5,2.42,3.73,3.57.66.63,1.22,1.07.22,2s-1.42.74-2.17-.11c-1-1.12-2.12-2.14-3.19-3.21l-15.86-15.87c-1.25-1.25-2.68-2.1-4.5-1.67-3.34.8-4.47,4.38-2.14,7.06,3.16,3.63,6.43,7.17,9.73,10.67a2.72,2.72,0,0,1,.51,3.53,15.94,15.94,0,0,0,.58,15.16,2.12,2.12,0,0,0,2.16,1.26c6-.06,11.94-.08,17.92,0,1.46,0,1.94-.25,1.92-1.86-.09-8.35-.24-16.7,0-25.05.2-6.45-2.72-11-7.79-14.66M553.35,806.4a3,3,0,0,0-3.1-1.6c-3.7.09-7.42.19-11.13,0-5.64-.3-11.07.25-16.16,2.9-.81.43-1.74.63-2.58,1-1.6.76-4.2.78-4.66,2.17s.95,3.3,1.62,5c1,2.52,2.72,3.3,5.28,2.42,1.26-.44,2.49-1,3.73-1.43l27-10.43m15.76,31.94c3.07,0,6.14,0,9.2,0,.88,0,1.23-.19,1.21-1.14-.06-2.61,0-5.21,0-7.81,0-.95-.23-1.32-1.26-1.32q-9.12.07-18.23,0c-1.06,0-1.23.44-1.22,1.35.05,2.54.06,5.09,0,7.64,0,1,.28,1.3,1.27,1.29,3-.06,6,0,9,0" transform="translate(-3.16 -129.05)"/><path class="cls-2" d="M522.31,774.67c0,.93,0,1.85,0,2.78-.08,2.46-1.2,3.63-3.63,3.69-1.91.05-3.82.05-5.73,0-2.17-.06-3.39-1.13-3.5-3.26a59.78,59.78,0,0,1,0-6.42,3.13,3.13,0,0,1,3.26-3.17,62,62,0,0,1,6.25,0c2.15.11,3.24,1.3,3.34,3.44,0,1,0,2,0,2.95ZM515.84,771c-.81,0-1.62,0-2.43,0s-1.27.16-1.28,1.13.23,1.32,1.16,1.15c1.2-.21,1.42.38,1.42,1.46s-.25,1.53-1.35,1.36c-.82-.13-1.25.08-1.23,1.08s.38,1.35,1.32,1.34q2.43,0,4.86,0c.94,0,1.32-.36,1.38-1.33.08-1.21-.64-1.18-1.41-1.08-1.14.15-1.34-.4-1.32-1.4s0-1.6,1.27-1.44c.72.09,1.52.23,1.46-1s-.67-1.29-1.59-1.24c-.75,0-1.51,0-2.26,0" transform="translate(-3.16 -129.05)"/><path class="cls-2" d="M513.17,787.7a10.59,10.59,0,0,0-1.38,0c-1.17.16-1.11-.58-1.12-1.38s0-1.36,1.08-1.26c.74.08,1.49,0,2.24,0s2-.48,2,1.26-1,1.32-1.9,1.34h-.87" transform="translate(-3.16 -129.05)"/><path class="cls-2" d="M528.82,787.7a10.59,10.59,0,0,0-1.38,0c-1.07.14-1.21-.43-1.21-1.32s.12-1.44,1.19-1.32c.68.08,1.39,0,2.07,0s2-.6,2,1.19-1,1.39-2,1.41h-.69" transform="translate(-3.16 -129.05)"/><path class="cls-2" d="M536.6,787.71a10.75,10.75,0,0,0-1.39,0c-1,.11-1.16-.37-1.14-1.22s0-1.54,1.14-1.42c.69.06,1.4-.06,2.09,0s2-.57,2,1.22-1.07,1.36-2,1.4h-.7" transform="translate(-3.16 -129.05)"/><path class="cls-2" d="M521.05,785.09a12.69,12.69,0,0,0,1.38,0c1-.12,1.24.33,1.26,1.28s-.24,1.49-1.34,1.36a17.68,17.68,0,0,0-2.06,0c-.92,0-1.9.34-1.88-1.33s1.09-1.21,2-1.28c.22,0,.46,0,.68,0" transform="translate(-3.16 -129.05)"/><path class="cls-2" d="M513.28,792.93c.52,0,1,0,1.55,0,1-.11,1.06.52,1.07,1.28s-.14,1.33-1.12,1.25c-.74-.06-1.49,0-2.23,0s-1.84.41-1.87-1.19,1-1.27,1.91-1.31h.69" transform="translate(-3.16 -129.05)"/><path class="cls-2" d="M536.67,795.45a9.77,9.77,0,0,0-1.21,0c-1,.12-1.43-.21-1.42-1.33s.4-1.3,1.34-1.22c.69.06,1.39,0,2.08,0s1.85-.41,1.87,1.21-.89,1.3-1.79,1.31h-.87" transform="translate(-3.16 -129.05)"/><path class="cls-2" d="M561.31,771.5c-.18.74.56,1.94-1.22,2s-1.34-1-1.29-1.93-.58-2,1.19-2,1.26,1,1.32,2" transform="translate(-3.16 -129.05)"/><path class="cls-2" d="M556.11,771.5c-.17.76.54,1.94-1.23,2s-1.33-1.05-1.28-1.93-.59-2,1.18-2,1.27,1,1.33,2" transform="translate(-3.16 -129.05)"/><path class="cls-2" d="M550.87,771.31c0,1.24.3,2.2-1.34,2.16-1.8-.05-1.08-1.28-1.12-2.06s-.51-1.85,1.13-1.89c1.82,0,1.27,1.14,1.33,1.79" transform="translate(-3.16 -129.05)"/><path class="cls-2" d="M543.16,771.48c.21-.7-.62-1.93,1.19-2,1.66,0,1.39,1,1.33,1.91s.57,2-1.2,2-1.27-1-1.32-2" transform="translate(-3.16 -129.05)"/><path class="cls-2" d="M564,832c.29,1.31-.55,1.27-1.5,1.34-1.35.11-1.24-.68-1.31-1.6-.08-1.19.56-1.21,1.47-1.26,1.19-.07,1.55.42,1.34,1.52" transform="translate(-3.16 -129.05)"/><circle class="cls-11" cx="958.66" cy="800.89" r="68.84" transform="translate(-151.29 1251.04) rotate(-67.5)"/><path class="cls-2" d="M939,795.9V767.45c0-3.79,1.65-5.44,5.43-5.45H973c3.54,0,5.33,1.77,5.33,5.28q0,28.68,0,57.36c0,3.26-1.9,5.17-5.15,5.18H944.13c-3.27,0-5.15-1.89-5.15-5.16Q939,810.28,939,795.9Zm3.21-.68c0,8.11,0,16.23,0,24.35,0,1.3.24,1.84,1.72,1.83,9.88-.07,19.76,0,29.64,0,1.23,0,1.65-.31,1.64-1.6q-.06-24.49,0-49c0-1.29-.42-1.61-1.64-1.6q-14.82.06-29.65,0c-1.3,0-1.73.32-1.72,1.68C942.21,779,942.18,787.1,942.18,795.22Zm16.47,27.72a2.18,2.18,0,0,0-2.21,2.33,2.12,2.12,0,0,0,2.21,2.15,2.18,2.18,0,0,0,2.22-2.31A2.21,2.21,0,0,0,958.65,822.94Z" transform="translate(-3.16 -129.05)"/><circle class="cls-12" cx="750.91" cy="800.89" r="68.84" transform="translate(-279.54 1059.1) rotate(-67.5)"/><path class="cls-2" d="M788.22,791.85l-9.67-6.41V764a1.25,1.25,0,0,0-1.25-1.25H724.52a1.25,1.25,0,0,0-1.25,1.25v21.44l-9.67,6.41h0a1.25,1.25,0,0,0-.57,1v38.86a1.26,1.26,0,0,0,1.26,1.25h73.24a1.25,1.25,0,0,0,1.25-1.25V792.89a1.24,1.24,0,0,0-.56-1Zm-65,4.39-3.94-2.09h3.94ZM715.54,795l28.85,15.3-28.85,19.13Zm35.37,14,32.46,21.51H718.45Zm6.51,1.3L786.27,795v34.43Zm21.13-16.13h3.94l-3.94,2.09Zm4.82-2.51h-4.82v-3.19ZM776,765.26v32.31l-21,11.14-3.44-2.29a1.28,1.28,0,0,0-1.38,0l-3.45,2.29-21-11.14V765.26Zm-52.77,26.38h-4.82l4.82-3.19Zm0,0" transform="translate(-3.16 -129.05)"/><path class="cls-2" d="M750.91,795.74h10a1.26,1.26,0,1,0,0-2.51h-10a8.75,8.75,0,0,1-8.74-8.74v-.37a8.74,8.74,0,0,1,17.48,0v.93a1.9,1.9,0,0,1-3.79,0v-1.76a5.42,5.42,0,1,0-1.84,4.07,4.4,4.4,0,0,0,8.14-2.31v-.93a11.25,11.25,0,0,0-22.5,0v.37a11.26,11.26,0,0,0,11.25,11.25Zm-.46-9.54a2.91,2.91,0,1,1,2.91-2.91,2.91,2.91,0,0,1-2.91,2.91Zm0,0" transform="translate(-3.16 -129.05)"/><circle class="cls-13" cx="335.41" cy="800.89" r="68.84" transform="translate(-527.9 790.45) rotate(-75.13)"/><path class="cls-2" d="M328.43,838.93c.19-1.28,1.16-1.21,2.1-1.21,6.13,0,12.26,0,18.4,0,1.28,0,1.8-.25,1.74-1.67-.12-2.75,0-5.5,0-8.25,0-.91.07-1.9,1.23-1.85s1.1,1,1.1,1.82c0,2.87,0,5.73,0,8.6,0,1.07.32,1.4,1.36,1.34,1.48-.1,3,0,4.46-.11,1.91-.16,2.46-.93,2.11-2.9-.44-2.48-.92-5-1.47-7.41a2,2,0,0,1,.55-2,1.71,1.71,0,0,1,1.75,1.71c.42,2.55,1,5.06,1.46,7.6.56,3.15-1.19,5.34-4.42,5.35-9.53,0-19.06,0-28.6,0-.81,0-1.49-.13-1.7-1.06" transform="translate(-3.16 -129.05)"/><path class="cls-2" d="M325.46,838.92c-.25.88-.89,1.08-1.72,1.07-3.91,0-7.82,0-11.72,0-3.2-.06-4.94-2.28-4.33-5.4q1.59-8.19,3.24-16.37a7.28,7.28,0,0,1,5.19-5.86c2.45-.78,4.91-1.57,7.4-2.21a12.14,12.14,0,0,0,4.12-2c1.22-.9,1.19-2.1-.12-3a14.48,14.48,0,0,1-7-11.79,1.49,1.49,0,0,0-1.06-1.5c-3.07-1.27-4-3.44-2.75-6.44a8.46,8.46,0,0,0,.23-3.24,20.67,20.67,0,0,1,1.27-7.59,2.48,2.48,0,0,1,1.43-1.52,2.52,2.52,0,0,0,1.69-2.86c-.2-.93.41-1.4.91-1.9,5.14-5.06,11.27-6.74,18.18-4.77a17.55,17.55,0,0,1,12.93,13.4,19.24,19.24,0,0,1,.51,4.78,11.73,11.73,0,0,0,.66,4.7c.85,2-.47,4.36-2.88,5.33a1.82,1.82,0,0,0-1.31,1.85,14.6,14.6,0,0,1-7.1,11.56c-1.29.83-1.22,2,0,3,1.75,1.42,3.86,1.92,5.94,2.53,1.76.51,3.53,1,5.28,1.55a7.55,7.55,0,0,1,5.48,6.22,18,18,0,0,0,.43,2.19,1.34,1.34,0,0,1-.77,1.83c-2-.24-1.52-2-1.73-3.09a5.94,5.94,0,0,0-4.62-5.15c-2.22-.59-4.43-1.21-6.6-1.94-.92-.31-1.21,0-1.47.77-.49,1.52-1,3-1.59,4.54a2.32,2.32,0,0,1-3.32,1.43c-.75-.28-1.53-.5-2.25-.84-1.18-.56-1.72-.49-1.65,1.06.12,2.4,0,4.82,0,7.23,0,.86-.23,1.73-1.27,1.68s-1.1-.84-1.1-1.66c0-1.83,0-3.67,0-5.51,0-3.34,0-3.34-3.19-2.08-1.93.77-3,.31-3.71-1.7-.52-1.39-1-2.8-1.49-4.21-.23-.68-.48-1-1.35-.75-2.5.82-5.06,1.45-7.56,2.29a4.79,4.79,0,0,0-3.43,3.74c-.37,1.79-.76,3.58-1.12,5.38-.74,3.65-1.48,7.3-2.19,11-.42,2.2.19,3,2.43,3.1,1.38.07,2.76,0,4.14.06,1.07.07,1.37-.3,1.35-1.36-.07-2.93,0-5.86,0-8.78,0-.8.19-1.63,1.12-1.66s1.25.8,1.25,1.7c0,2.29,0,4.59,0,6.89,0,3.13,0,3.14,3.09,3.16,1,0,1.9,0,2.12,1.21m2.73-60.51c-1.61-.68-2.27-.11-2.38,1.6a5.76,5.76,0,0,1-2.38,4.21,1.58,1.58,0,0,0-.72,1.42c0,2.29-.08,4.58.05,6.87.24,4.17,1.73,7.73,5.44,10.06,7.08,5.44,18,1.15,19.58-7.66.56-3.14.2-6.29.32-9.44a1.06,1.06,0,0,0-.44-1,6.63,6.63,0,0,1-2.74-5.12c-.06-.82-.37-1.25-1.31-1.12a65.73,65.73,0,0,1-15.42.2m7,35.48c1.56-2,3-3.88,4.49-5.77.24-.31.55-.69.26-1.07s-.65-.12-1,0a16.35,16.35,0,0,1-7.3,0c-.28-.07-.69-.32-.9.1s.05.68.24,1l4.18,5.84m1.9,1.51c1.5.51,3,1.57,4,1.23s1.05-2.33,1.58-3.56c.18-.42.32-.86.5-1.28.44-1.08-.59-1.17-1.08-1.61s-.9-.1-1.23.33l-3.79,4.89m-3.86-.1c-1.1-1.53-2.21-3-3.29-4.59-.39-.56-.72-1-1.47-.44-.56.45-1.38.68-.81,1.7a9.46,9.46,0,0,1,.56,1.6c1.33,3.65,1.33,3.65,5,1.73m-13-25.68v-4.18a2.13,2.13,0,0,0-1.67,1.82c-.12,1.14.46,1.83,1.67,2.36m30.37-4.19v4.15a2.13,2.13,0,0,0,1.66-2.21c0-1.06-.68-1.56-1.66-1.94" transform="translate(-3.16 -129.05)"/></svg>