<svg id="Capa_1" data-name="Capa 1" xmlns="http://www.w3.org/2000/svg" xmlns:xlink="http://www.w3.org/1999/xlink" viewBox="0 0 137.67 137.67" width="72" height="72"><defs><style>.cls-1{fill:url(#Degradado_sin_nombre_6);}.cls-2{fill:#fff;}</style><linearGradient id="Degradado_sin_nombre_6" x1="130.92" y1="148.97" x2="40.28" y2="31.97" gradientTransform="translate(117.7 -15.36) rotate(75.13)" gradientUnits="userSpaceOnUse"><stop offset="0" stop-color="#4fa0ca"/><stop offset="1" stop-color="#de402c"/></linearGradient></defs><title>Icono</title><circle class="cls-1" cx="68.84" cy="68.84" r="68.84" transform="translate(-15.36 117.7) rotate(-75.13)"/><path class="cls-2" d="M79.47,77.15,50,88.52c-4.7,1.8-8,.32-9.81-4.34-1.32-3.45-2.68-6.89-4-10.36a2.3,2.3,0,0,0-1.68-1.66,6.17,6.17,0,0,1-4.66-6.34q0-13.92,0-27.85c0-4.28,2.68-7,7-7q25.5,0,51,0c4.28,0,6.91,2.63,7.08,6.92a2.26,2.26,0,0,1,0,.52c-.88,4.69.9,8.18,4.62,11a26.1,26.1,0,0,1,4.9,5.16,16.5,16.5,0,0,1,3.39,10c0,14.09,0,28.19,0,42.28,0,1.52-.56,2-2,2-7.31,0-14.62,0-21.93,0-1.67,0-2.11-.78-2.1-2.23,0-3.48,0-7,0-10.44a3.14,3.14,0,0,0-.3-1.85,19.06,19.06,0,0,1-2-17.28m15.12-8.93c4.24-1.19,5.07-2.82,3.52-6.85-.53-1.35-1-2.71-1.57-4-.2-.5-.21-1.35-1-1.23-.93.14-.5,1-.53,1.57-.21,3.51.41,7.06-.46,10.54l0,.06ZM92.2,66.81V38.48c0-3.56-1.34-4.93-5-4.93q-25,0-49.91,0c-3.53,0-4.85,1.35-4.85,4.84q0,13.4,0,26.78c0,3.43,1.42,4.8,4.88,4.8q18,0,36,0A2.48,2.48,0,0,0,75,69.69c-1.64-1.83-3.31-3.56-4.84-5.42a6.83,6.83,0,0,1,3.54-11.18c2.72-.75,5,.23,6.94,2.15C84.39,59,88.09,62.69,92.2,66.81m5.15-15.1c1.26,3.21,2.55,6.41,3.77,9.63a6.69,6.69,0,0,1-2.87,8.56c-.59.33-1.23.58-2,.95,1.3,1.25,2.5,2.42,3.73,3.57.66.63,1.22,1.07.21,2s-1.41.73-2.16-.11c-1-1.13-2.12-2.15-3.19-3.22L79,57.26c-1.25-1.25-2.68-2.1-4.5-1.67-3.34.8-4.47,4.38-2.14,7.06,3.16,3.63,6.42,7.17,9.73,10.67a2.72,2.72,0,0,1,.51,3.53A16,16,0,0,0,83.12,92a2.13,2.13,0,0,0,2.17,1.26c6-.06,11.94-.08,17.91,0,1.47,0,2-.25,1.93-1.85-.1-8.35-.24-16.71,0-25.06.2-6.45-2.72-11-7.8-14.66M79,74.36a3,3,0,0,0-3.1-1.61c-3.71.09-7.43.19-11.13,0-5.64-.3-11.07.25-16.16,2.9-.82.43-1.74.63-2.58,1-1.61.76-4.2.78-4.66,2.17s1,3.3,1.61,5c1,2.53,2.73,3.3,5.29,2.42,1.26-.43,2.49-.95,3.73-1.43L79,74.36m15.76,31.93c3.07,0,6.14,0,9.2,0,.87,0,1.23-.19,1.21-1.14-.06-2.61,0-5.21,0-7.81,0-.95-.23-1.32-1.25-1.31q-9.12.06-18.23,0c-1.06,0-1.24.43-1.22,1.34.05,2.54.06,5.09,0,7.64,0,1,.28,1.3,1.27,1.29,3-.06,6,0,9,0"/><path class="cls-2" d="M48,42.62c0,.93,0,1.85,0,2.78-.08,2.46-1.2,3.63-3.63,3.69q-2.86.07-5.73,0c-2.17-.07-3.39-1.14-3.5-3.27a59.78,59.78,0,0,1,0-6.42,3.13,3.13,0,0,1,3.26-3.17,62,62,0,0,1,6.25,0c2.15.11,3.24,1.3,3.34,3.44,0,1,0,2,0,2.95ZM41.52,39c-.81,0-1.62,0-2.43,0s-1.27.16-1.28,1.13S38,41.39,39,41.22c1.2-.21,1.42.38,1.42,1.46S40.14,44.21,39,44c-.82-.13-1.26.08-1.23,1.08s.38,1.35,1.32,1.34q2.43,0,4.86,0c.94,0,1.32-.36,1.38-1.33.08-1.21-.64-1.18-1.42-1.08-1.13.15-1.34-.4-1.31-1.4s0-1.6,1.27-1.44c.72.09,1.52.24,1.46-1s-.68-1.29-1.59-1.24c-.75,0-1.51,0-2.26,0"/><path class="cls-2" d="M38.85,55.65a10.58,10.58,0,0,0-1.38,0c-1.17.16-1.11-.58-1.12-1.38s0-1.36,1.07-1.25c.74.07,1.5,0,2.25,0s1.95-.48,1.95,1.26-1,1.32-1.91,1.34h-.86"/><path class="cls-2" d="M54.5,55.65a10.58,10.58,0,0,0-1.38,0c-1.07.14-1.21-.43-1.22-1.32S52,52.9,53.1,53c.68.07,1.39-.05,2.07,0s2-.61,2,1.18-1,1.39-2,1.41H54.5"/><path class="cls-2" d="M62.28,55.66a10.75,10.75,0,0,0-1.39,0c-1,.11-1.17-.37-1.14-1.22s0-1.54,1.14-1.42c.69.06,1.4-.06,2.08,0,.84.08,2-.56,2,1.22s-1.07,1.36-2,1.4c-.23,0-.47,0-.7,0"/><path class="cls-2" d="M46.73,53a12.71,12.71,0,0,0,1.38,0c1-.12,1.24.33,1.26,1.28S49.13,55.8,48,55.67a17.68,17.68,0,0,0-2.06,0c-.92,0-1.9.34-1.88-1.33S45.18,53.11,46,53c.23,0,.46,0,.69,0"/><path class="cls-2" d="M39,60.88c.52,0,1,0,1.55,0,1-.1,1.06.52,1.07,1.28s-.14,1.33-1.12,1.25c-.74-.06-1.49,0-2.24,0s-1.83.41-1.86-1.19,1-1.27,1.91-1.31c.23,0,.46,0,.69,0"/><path class="cls-2" d="M62.35,63.4a9.92,9.92,0,0,0-1.22,0c-1,.12-1.43-.21-1.41-1.33s.4-1.3,1.33-1.22c.69.06,1.39,0,2.09,0S65,60.47,65,62.09s-.89,1.3-1.79,1.31h-.87"/><path class="cls-2" d="M87,39.45c-.18.74.56,1.94-1.22,2s-1.34-1-1.29-1.92-.58-2,1.19-2,1.26,1,1.32,2"/><path class="cls-2" d="M81.78,39.46c-.17.75.55,1.94-1.23,2s-1.32-1.06-1.28-1.94-.58-2,1.19-2,1.26,1,1.32,2"/><path class="cls-2" d="M76.55,39.26c0,1.24.29,2.21-1.34,2.16-1.8-.05-1.08-1.28-1.12-2.06s-.52-1.85,1.12-1.89c1.82,0,1.28,1.14,1.34,1.79"/><path class="cls-2" d="M68.84,39.43c.21-.7-.62-1.93,1.18-2s1.4,1,1.33,1.91.58,2-1.19,2-1.27-1-1.32-2"/><path class="cls-2" d="M89.7,99.94c.29,1.31-.55,1.27-1.5,1.34-1.35.11-1.24-.68-1.31-1.59-.08-1.2.56-1.22,1.47-1.27,1.19-.07,1.55.42,1.34,1.52"/></svg>