<svg id="Capa_1" data-name="Capa 1" xmlns="http://www.w3.org/2000/svg" xmlns:xlink="http://www.w3.org/1999/xlink" viewBox="0 0 137.67 137.67" width="72" height="72"><defs><style>.cls-1{fill:url(#Degradado_sin_nombre_19);}.cls-2{fill:#fff;}</style><linearGradient id="Degradado_sin_nombre_19" x1="134.47" y1="144.36" x2="40.62" y2="36.36" gradientTransform="translate(106.09 -21.1) rotate(67.5)" gradientUnits="userSpaceOnUse"><stop offset="0" stop-color="#4fa0ca"/><stop offset="1" stop-color="#de402c"/></linearGradient></defs><title>Icono</title><circle class="cls-1" cx="68.84" cy="68.84" r="68.84" transform="translate(-21.1 106.09) rotate(-67.5)"/><path class="cls-2" d="M106.15,59.8l-9.67-6.41V32a1.25,1.25,0,0,0-1.26-1.25H42.45A1.26,1.26,0,0,0,41.19,32V53.39L31.52,59.8h0a1.26,1.26,0,0,0-.56,1V99.7A1.25,1.25,0,0,0,32.22,101h73.24a1.25,1.25,0,0,0,1.25-1.25V60.84a1.24,1.24,0,0,0-.56-1Zm-65,4.39L37.26,62.1h3.93Zm-7.72-1.26,28.85,15.3L33.47,97.36Zm35.37,14,32.45,21.51H36.38Zm6.51,1.3,28.85-15.3V97.36ZM96.48,62.1h3.93l-3.93,2.09Zm4.81-2.51H96.48V56.4ZM94,33.21V65.52L73,76.66l-3.44-2.28a1.26,1.26,0,0,0-1.39,0L64.7,76.66l-21-11.14V33.21ZM41.19,59.59H36.38l4.81-3.19Zm0,0"/><path class="cls-2" d="M68.84,63.69h10a1.26,1.26,0,1,0,0-2.51h-10a8.75,8.75,0,0,1-8.74-8.74v-.37a8.74,8.74,0,1,1,17.48,0V53a1.9,1.9,0,0,1-3.79,0V51.24a5.44,5.44,0,1,0-1.85,4.07A4.4,4.4,0,0,0,80.09,53v-.93a11.25,11.25,0,1,0-22.5,0v.37A11.26,11.26,0,0,0,68.84,63.69Zm-.47-9.54a2.91,2.91,0,1,1,2.91-2.91,2.92,2.92,0,0,1-2.91,2.91Zm0,0"/></svg>