<svg id="Capa_1" data-name="Capa 1" xmlns="http://www.w3.org/2000/svg" xmlns:xlink="http://www.w3.org/1999/xlink" viewBox="0 0 137.67 137.67" width="72" height="72"><defs><style>.cls-1{fill:url(#Degradado_sin_nombre_19);}.cls-2{fill:#fff;}</style><linearGradient id="Degradado_sin_nombre_19" x1="122.43" y1="154.87" x2="49.15" y2="37.23" gradientTransform="translate(106.09 -21.1) rotate(67.5)" gradientUnits="userSpaceOnUse"><stop offset="0" stop-color="#4fa0ca"/><stop offset="1" stop-color="#de402c"/></linearGradient></defs><title>Icono</title><circle class="cls-1" cx="68.84" cy="68.84" r="68.84" transform="translate(-21.1 106.09) rotate(-67.5)"/><path class="cls-2" d="M49.15,63.85V35.4c0-3.79,1.65-5.44,5.43-5.44q14.31,0,28.61,0c3.54,0,5.33,1.76,5.33,5.27q0,28.68,0,57.36c0,3.26-1.9,5.17-5.15,5.18q-14.53,0-29.06,0c-3.28,0-5.15-1.88-5.16-5.16Q49.14,78.24,49.15,63.85Zm3.21-.68c0,8.11,0,16.23,0,24.35,0,1.31.24,1.84,1.72,1.83q14.83-.09,29.65,0c1.23,0,1.64-.31,1.64-1.6q-.06-24.49,0-49c0-1.29-.42-1.61-1.64-1.6q-14.83.06-29.65,0c-1.3,0-1.73.32-1.72,1.69C52.39,46.93,52.36,55.05,52.36,63.17ZM68.83,90.89a2.17,2.17,0,0,0-2.21,2.33,2.12,2.12,0,0,0,2.21,2.15,2.17,2.17,0,0,0,2.22-2.3A2.21,2.21,0,0,0,68.83,90.89Z"/></svg>