<svg id="Capa_1" data-name="Capa 1" xmlns="http://www.w3.org/2000/svg" xmlns:xlink="http://www.w3.org/1999/xlink" viewBox="0 0 137.67 137.67" width="72" height="72"><defs><style>.cls-1{fill:url(#Degradado_sin_nombre_4);}.cls-2{fill:#fff;}</style><linearGradient id="Degradado_sin_nombre_4" x1="130.49" y1="142.17" x2="58.06" y2="56.02" gradientTransform="translate(114.77 -16.99) rotate(73.15)" gradientUnits="userSpaceOnUse"><stop offset="0" stop-color="#4fa0ca"/><stop offset="0.2" stop-color="#6790af"/><stop offset="0.63" stop-color="#a5666a"/><stop offset="1" stop-color="#de402c"/></linearGradient></defs><title>icon-budgeting</title><circle class="cls-1" cx="68.84" cy="68.84" r="68.84" transform="translate(-16.99 114.77) rotate(-73.15)"/><path class="cls-2" d="M68.84,106.91a1.61,1.61,0,0,1-1.3-.66L44,73.63a.51.51,0,0,1-.09-.13l0,0a28.65,28.65,0,1,1,50-.1,2,2,0,0,1-.14.25L70.13,106.25a1.61,1.61,0,0,1-1.29.66M46.64,71.84l22.2,30.74L91,71.84a25.45,25.45,0,1,0-44.4,0m22.2-1a12.7,12.7,0,1,1,12.7-12.7,12.72,12.72,0,0,1-12.7,12.7m0-22.85A10.15,10.15,0,1,0,79,58.11,10.16,10.16,0,0,0,68.84,48"/></svg>