<svg id="Capa_1" data-name="Capa 1" xmlns="http://www.w3.org/2000/svg" xmlns:xlink="http://www.w3.org/1999/xlink" viewBox="0 0 137.67 137.67" width="72" height="72"><defs><style>.cls-1{fill:url(#Degradado_sin_nombre_19);}.cls-2{fill:#fff;}</style><linearGradient id="Degradado_sin_nombre_19" x1="119.12" y1="146.81" x2="52.58" y2="43.63" gradientTransform="translate(117.7 -15.36) rotate(75.13)" gradientUnits="userSpaceOnUse"><stop offset="0" stop-color="#4fa0ca"/><stop offset="1" stop-color="#de402c"/></linearGradient></defs><title>Icono</title><circle class="cls-1" cx="68.84" cy="68.84" r="68.84" transform="translate(-15.36 117.7) rotate(-75.13)"/><path class="cls-2" d="M61.86,106.88c.19-1.28,1.16-1.21,2.1-1.21,6.13,0,12.26,0,18.4,0,1.28,0,1.8-.25,1.74-1.67-.12-2.75,0-5.5,0-8.25,0-.91.07-1.9,1.23-1.85s1.1,1,1.09,1.82c0,2.87,0,5.73,0,8.6,0,1.07.33,1.4,1.37,1.34,1.48-.1,3,0,4.46-.11,1.9-.15,2.46-.93,2.11-2.9-.44-2.48-.92-5-1.47-7.41a2,2,0,0,1,.55-2c1.08.07,1.57.61,1.75,1.71.42,2.55,1,5.06,1.46,7.6.56,3.15-1.2,5.34-4.42,5.35-9.53,0-19.07,0-28.6,0-.81,0-1.49-.13-1.7-1.06"/><path class="cls-2" d="M58.89,106.87c-.26.88-.89,1.08-1.73,1.08-3.9,0-7.81,0-11.71,0-3.2-.06-4.94-2.28-4.34-5.4q1.59-8.19,3.25-16.37a7.25,7.25,0,0,1,5.18-5.86C52,79.5,54.46,78.72,57,78.07a12,12,0,0,0,4.12-2c1.22-.9,1.18-2.1-.12-3a14.48,14.48,0,0,1-7-11.79,1.48,1.48,0,0,0-1.07-1.5c-3.06-1.27-4-3.44-2.74-6.44a8.46,8.46,0,0,0,.23-3.24,20.78,20.78,0,0,1,1.26-7.58A2.52,2.52,0,0,1,53.08,41a2.53,2.53,0,0,0,1.69-2.86c-.2-.93.41-1.4.91-1.89C60.82,31.18,67,29.5,73.85,31.47a17.57,17.57,0,0,1,12.94,13.4,19.24,19.24,0,0,1,.51,4.78,11.9,11.9,0,0,0,.65,4.7c.86,2-.46,4.36-2.87,5.33a1.81,1.81,0,0,0-1.31,1.85,14.59,14.59,0,0,1-7.1,11.56c-1.29.83-1.22,2,0,3,1.76,1.42,3.87,1.92,6,2.53,1.76.51,3.53,1,5.27,1.55a7.56,7.56,0,0,1,5.49,6.22,18,18,0,0,0,.43,2.19A1.34,1.34,0,0,1,93,90.4c-2-.24-1.52-2-1.73-3.09a5.94,5.94,0,0,0-4.63-5.15c-2.21-.59-4.42-1.21-6.59-1.94-.92-.31-1.22,0-1.47.77-.49,1.52-1,3-1.59,4.54A2.31,2.31,0,0,1,73.7,87c-.76-.27-1.53-.5-2.26-.84-1.17-.56-1.71-.49-1.64,1.06.11,2.4,0,4.82,0,7.23,0,.86-.22,1.73-1.27,1.68s-1.1-.84-1.09-1.66c0-1.83,0-3.67,0-5.51,0-3.34,0-3.34-3.19-2.08-1.94.77-3,.31-3.72-1.7-.51-1.39-1-2.8-1.48-4.21-.24-.68-.48-1-1.35-.75-2.5.82-5.06,1.46-7.56,2.29a4.79,4.79,0,0,0-3.43,3.74c-.37,1.8-.76,3.58-1.13,5.38-.73,3.65-1.48,7.31-2.18,11-.42,2.2.19,3,2.43,3.1,1.38.07,2.76,0,4.13.06,1.08.07,1.38-.3,1.36-1.36-.07-2.93,0-5.86,0-8.78,0-.8.19-1.63,1.12-1.65s1.25.79,1.24,1.69c0,2.29,0,4.59,0,6.89,0,3.13,0,3.14,3.09,3.17.95,0,1.9,0,2.12,1.2m2.73-60.51c-1.61-.68-2.27-.11-2.38,1.6a5.76,5.76,0,0,1-2.38,4.21,1.58,1.58,0,0,0-.72,1.42c0,2.29-.08,4.58,0,6.87.24,4.17,1.73,7.73,5.44,10.06,7.08,5.44,18,1.15,19.58-7.66.56-3.13.2-6.29.31-9.44a1,1,0,0,0-.43-1,6.61,6.61,0,0,1-2.75-5.12c0-.82-.36-1.25-1.3-1.12a65.73,65.73,0,0,1-15.42.2m7,35.48c1.56-2,3-3.88,4.49-5.77.24-.31.55-.68.26-1.07s-.65-.12-1,0a16.35,16.35,0,0,1-7.3,0c-.29-.07-.69-.32-.91.1s0,.68.25,1c1.35,1.9,2.72,3.8,4.18,5.84m1.9,1.51c1.5.51,3,1.57,4,1.23s1.06-2.33,1.59-3.56c.18-.42.32-.85.49-1.28.45-1.08-.58-1.17-1.08-1.61s-.89-.1-1.22.33l-3.79,4.89m-3.86-.1c-1.1-1.53-2.21-3-3.29-4.59-.39-.56-.72-1-1.47-.44-.57.45-1.38.68-.81,1.7a9.46,9.46,0,0,1,.56,1.6c1.32,3.65,1.32,3.65,5,1.73m-13-25.68V53.39A2.13,2.13,0,0,0,52,55.21c-.13,1.14.46,1.83,1.67,2.36m30.37-4.19v4.15a2.13,2.13,0,0,0,1.66-2.21c0-1.06-.69-1.56-1.66-1.94"/></svg>